<svg width="32" height="32" viewBox="0 0 32 32" fill="none" xmlns="http://www.w3.org/2000/svg">
<g clip-path="url(#clip0_28_4)">
<path d="M8.97075 30.2375C6.30088 28.6961 4.57293 26.4586 3.7869 23.5251C3.00086 20.5916 3.37857 17.7899 4.92002 15.12C6.15844 12.975 7.90166 11.418 10.1497 10.4492C12.3977 9.48035 14.7198 9.29214 17.1161 9.88457C16.7256 9.50698 16.3761 9.08463 16.0677 8.61752C15.7593 8.15042 15.5328 7.64691 15.3881 7.107C15.0698 5.91919 15.102 4.74357 15.4847 3.58012C15.8673 2.41668 16.4253 1.33164 17.1586 0.325004C18.297 0.830122 19.3228 1.4908 20.2359 2.30704C21.149 3.12327 21.7647 4.12529 22.083 5.3131C22.3048 6.14097 22.3445 6.95495 22.202 7.75505C22.0596 8.55514 21.8118 9.34006 21.4586 10.1098C22.1637 9.57368 22.9085 9.11372 23.6929 8.72992C24.4774 8.34612 25.2836 8.0433 26.1114 7.82148C26.5074 7.71539 26.8993 7.77433 27.2872 7.9983C27.6752 8.22227 27.9222 8.53222 28.0283 8.92816C28.1344 9.32409 28.0754 9.71603 27.8514 10.104C27.6275 10.4919 27.3175 10.7389 26.9216 10.845C26.1297 11.0572 25.3652 11.3536 24.6282 11.7344C23.8911 12.1151 23.2337 12.5951 22.6559 13.1743C24.2951 14.9726 25.2467 17.0661 25.5106 19.4547C25.7745 21.8434 25.3004 24.0874 24.0883 26.1868C22.5469 28.8567 20.3094 30.5846 17.3758 31.3707C14.4423 32.1567 11.6406 31.779 8.97075 30.2375ZM10.5517 27.4992C12.4457 28.5927 14.4456 28.8574 16.5512 28.2932C18.6569 27.729 20.2565 26.4998 21.35 24.6058C22.4435 22.7118 22.7081 20.712 22.1439 18.6063C21.5797 16.5007 20.3506 14.9011 18.4566 13.8076C16.5626 12.7141 14.5627 12.4494 12.4571 13.0136C10.3514 13.5779 8.75185 14.807 7.65834 16.701C6.56484 18.595 6.30019 20.5948 6.8644 22.7005C7.42861 24.8061 8.65772 26.4057 10.5517 27.4992Z" fill="#E67E22"/>
</g>
<defs>
<clipPath id="clip0_28_4">
<rect width="32" height="32" fill="white"/>
</clipPath>
</defs>
</svg>
